<?xml version="1.0" encoding="utf-8" standalone="no"?>
<!DOCTYPE svg PUBLIC "-//W3C//DTD SVG 1.1//EN"
  "http://www.w3.org/Graphics/SVG/1.1/DTD/svg11.dtd">
<!-- Created with matplotlib (https://matplotlib.org/) -->
<svg height="345.6pt" version="1.1" viewBox="0 0 460.8 345.6" width="460.8pt" xmlns="http://www.w3.org/2000/svg" xmlns:xlink="http://www.w3.org/1999/xlink">
 <defs>
  <style type="text/css">
*{stroke-linecap:butt;stroke-linejoin:round;}
  </style>
 </defs>
 <g id="figure_1">
  <g id="patch_1">
   <path d="M 0 345.6 
L 460.8 345.6 
L 460.8 0 
L 0 0 
z
" style="fill:#ffffff;"/>
  </g>
  <g id="axes_1">
   <g id="patch_2">
    <path d="M 57.6 307.584 
L 414.72 307.584 
L 414.72 41.472 
L 57.6 41.472 
z
" style="fill:#ffffff;"/>
   </g>
   <g id="matplotlib.axis_1">
    <g id="xtick_1">
     <g id="line2d_1">
      <path clip-path="url(#pf84c2b9170)" d="M 57.6 307.584 
L 57.6 41.472 
" style="fill:none;stroke:#b0b0b0;stroke-linecap:square;stroke-width:0.8;"/>
     </g>
     <g id="line2d_2">
      <defs>
       <path d="M 0 0 
L 0 3.5 
" id="md0285a5d53" style="stroke:#000000;stroke-width:0.8;"/>
      </defs>
      <g>
       <use style="stroke:#000000;stroke-width:0.8;" x="57.6" xlink:href="#md0285a5d53" y="307.584"/>
      </g>
     </g>
     <g id="text_1">
      <!-- −40 -->
      <defs>
       <path d="M 10.59375 35.5 
L 73.1875 35.5 
L 73.1875 27.203125 
L 10.59375 27.203125 
z
" id="DejaVuSans-8722"/>
       <path d="M 37.796875 64.3125 
L 12.890625 25.390625 
L 37.796875 25.390625 
z
M 35.203125 72.90625 
L 47.609375 72.90625 
L 47.609375 25.390625 
L 58.015625 25.390625 
L 58.015625 17.1875 
L 47.609375 17.1875 
L 47.609375 0 
L 37.796875 0 
L 37.796875 17.1875 
L 4.890625 17.1875 
L 4.890625 26.703125 
z
" id="DejaVuSans-52"/>
       <path d="M 31.78125 66.40625 
Q 24.171875 66.40625 20.328125 58.90625 
Q 16.5 51.421875 16.5 36.375 
Q 16.5 21.390625 20.328125 13.890625 
Q 24.171875 6.390625 31.78125 6.390625 
Q 39.453125 6.390625 43.28125 13.890625 
Q 47.125 21.390625 47.125 36.375 
Q 47.125 51.421875 43.28125 58.90625 
Q 39.453125 66.40625 31.78125 66.40625 
z
M 31.78125 74.21875 
Q 44.046875 74.21875 50.515625 64.515625 
Q 56.984375 54.828125 56.984375 36.375 
Q 56.984375 17.96875 50.515625 8.265625 
Q 44.046875 -1.421875 31.78125 -1.421875 
Q 19.53125 -1.421875 13.0625 8.265625 
Q 6.59375 17.96875 6.59375 36.375 
Q 6.59375 54.828125 13.0625 64.515625 
Q 19.53125 74.21875 31.78125 74.21875 
z
" id="DejaVuSans-48"/>
      </defs>
      <g transform="translate(47.047656 322.182437)scale(0.1 -0.1)">
       <use xlink:href="#DejaVuSans-8722"/>
       <use x="83.789062" xlink:href="#DejaVuSans-52"/>
       <use x="147.412109" xlink:href="#DejaVuSans-48"/>
      </g>
     </g>
    </g>
    <g id="xtick_2">
     <g id="line2d_3">
      <path clip-path="url(#pf84c2b9170)" d="M 102.24 307.584 
L 102.24 41.472 
" style="fill:none;stroke:#b0b0b0;stroke-linecap:square;stroke-width:0.8;"/>
     </g>
     <g id="line2d_4">
      <g>
       <use style="stroke:#000000;stroke-width:0.8;" x="102.24" xlink:href="#md0285a5d53" y="307.584"/>
      </g>
     </g>
     <g id="text_2">
      <!-- −30 -->
      <defs>
       <path d="M 40.578125 39.3125 
Q 47.65625 37.796875 51.625 33 
Q 55.609375 28.21875 55.609375 21.1875 
Q 55.609375 10.40625 48.1875 4.484375 
Q 40.765625 -1.421875 27.09375 -1.421875 
Q 22.515625 -1.421875 17.65625 -0.515625 
Q 12.796875 0.390625 7.625 2.203125 
L 7.625 11.71875 
Q 11.71875 9.328125 16.59375 8.109375 
Q 21.484375 6.890625 26.8125 6.890625 
Q 36.078125 6.890625 40.9375 10.546875 
Q 45.796875 14.203125 45.796875 21.1875 
Q 45.796875 27.640625 41.28125 31.265625 
Q 36.765625 34.90625 28.71875 34.90625 
L 20.21875 34.90625 
L 20.21875 43.015625 
L 29.109375 43.015625 
Q 36.375 43.015625 40.234375 45.921875 
Q 44.09375 48.828125 44.09375 54.296875 
Q 44.09375 59.90625 40.109375 62.90625 
Q 36.140625 65.921875 28.71875 65.921875 
Q 24.65625 65.921875 20.015625 65.03125 
Q 15.375 64.15625 9.8125 62.3125 
L 9.8125 71.09375 
Q 15.4375 72.65625 20.34375 73.4375 
Q 25.25 74.21875 29.59375 74.21875 
Q 40.828125 74.21875 47.359375 69.109375 
Q 53.90625 64.015625 53.90625 55.328125 
Q 53.90625 49.265625 50.4375 45.09375 
Q 46.96875 40.921875 40.578125 39.3125 
z
" id="DejaVuSans-51"/>
      </defs>
      <g transform="translate(91.687656 322.182437)scale(0.1 -0.1)">
       <use xlink:href="#DejaVuSans-8722"/>
       <use x="83.789062" xlink:href="#DejaVuSans-51"/>
       <use x="147.412109" xlink:href="#DejaVuSans-48"/>
      </g>
     </g>
    </g>
    <g id="xtick_3">
     <g id="line2d_5">
      <path clip-path="url(#pf84c2b9170)" d="M 146.88 307.584 
L 146.88 41.472 
" style="fill:none;stroke:#b0b0b0;stroke-linecap:square;stroke-width:0.8;"/>
     </g>
     <g id="line2d_6">
      <g>
       <use style="stroke:#000000;stroke-width:0.8;" x="146.88" xlink:href="#md0285a5d53" y="307.584"/>
      </g>
     </g>
     <g id="text_3">
      <!-- −20 -->
      <defs>
       <path d="M 19.1875 8.296875 
L 53.609375 8.296875 
L 53.609375 0 
L 7.328125 0 
L 7.328125 8.296875 
Q 12.9375 14.109375 22.625 23.890625 
Q 32.328125 33.6875 34.8125 36.53125 
Q 39.546875 41.84375 41.421875 45.53125 
Q 43.3125 49.21875 43.3125 52.78125 
Q 43.3125 58.59375 39.234375 62.25 
Q 35.15625 65.921875 28.609375 65.921875 
Q 23.96875 65.921875 18.8125 64.3125 
Q 13.671875 62.703125 7.8125 59.421875 
L 7.8125 69.390625 
Q 13.765625 71.78125 18.9375 73 
Q 24.125 74.21875 28.421875 74.21875 
Q 39.75 74.21875 46.484375 68.546875 
Q 53.21875 62.890625 53.21875 53.421875 
Q 53.21875 48.921875 51.53125 44.890625 
Q 49.859375 40.875 45.40625 35.40625 
Q 44.1875 33.984375 37.640625 27.21875 
Q 31.109375 20.453125 19.1875 8.296875 
z
" id="DejaVuSans-50"/>
      </defs>
      <g transform="translate(136.327656 322.182437)scale(0.1 -0.1)">
       <use xlink:href="#DejaVuSans-8722"/>
       <use x="83.789062" xlink:href="#DejaVuSans-50"/>
       <use x="147.412109" xlink:href="#DejaVuSans-48"/>
      </g>
     </g>
    </g>
    <g id="xtick_4">
     <g id="line2d_7">
      <path clip-path="url(#pf84c2b9170)" d="M 191.52 307.584 
L 191.52 41.472 
" style="fill:none;stroke:#b0b0b0;stroke-linecap:square;stroke-width:0.8;"/>
     </g>
     <g id="line2d_8">
      <g>
       <use style="stroke:#000000;stroke-width:0.8;" x="191.52" xlink:href="#md0285a5d53" y="307.584"/>
      </g>
     </g>
     <g id="text_4">
      <!-- −10 -->
      <defs>
       <path d="M 12.40625 8.296875 
L 28.515625 8.296875 
L 28.515625 63.921875 
L 10.984375 60.40625 
L 10.984375 69.390625 
L 28.421875 72.90625 
L 38.28125 72.90625 
L 38.28125 8.296875 
L 54.390625 8.296875 
L 54.390625 0 
L 12.40625 0 
z
" id="DejaVuSans-49"/>
      </defs>
      <g transform="translate(180.967656 322.182437)scale(0.1 -0.1)">
       <use xlink:href="#DejaVuSans-8722"/>
       <use x="83.789062" xlink:href="#DejaVuSans-49"/>
       <use x="147.412109" xlink:href="#DejaVuSans-48"/>
      </g>
     </g>
    </g>
    <g id="xtick_5">
     <g id="line2d_9">
      <path clip-path="url(#pf84c2b9170)" d="M 236.16 307.584 
L 236.16 41.472 
" style="fill:none;stroke:#b0b0b0;stroke-linecap:square;stroke-width:0.8;"/>
     </g>
     <g id="line2d_10">
      <g>
       <use style="stroke:#000000;stroke-width:0.8;" x="236.16" xlink:href="#md0285a5d53" y="307.584"/>
      </g>
     </g>
     <g id="text_5">
      <!-- 0 -->
      <g transform="translate(232.97875 322.182437)scale(0.1 -0.1)">
       <use xlink:href="#DejaVuSans-48"/>
      </g>
     </g>
    </g>
    <g id="xtick_6">
     <g id="line2d_11">
      <path clip-path="url(#pf84c2b9170)" d="M 280.8 307.584 
L 280.8 41.472 
" style="fill:none;stroke:#b0b0b0;stroke-linecap:square;stroke-width:0.8;"/>
     </g>
     <g id="line2d_12">
      <g>
       <use style="stroke:#000000;stroke-width:0.8;" x="280.8" xlink:href="#md0285a5d53" y="307.584"/>
      </g>
     </g>
     <g id="text_6">
      <!-- 10 -->
      <g transform="translate(274.4375 322.182437)scale(0.1 -0.1)">
       <use xlink:href="#DejaVuSans-49"/>
       <use x="63.623047" xlink:href="#DejaVuSans-48"/>
      </g>
     </g>
    </g>
    <g id="xtick_7">
     <g id="line2d_13">
      <path clip-path="url(#pf84c2b9170)" d="M 325.44 307.584 
L 325.44 41.472 
" style="fill:none;stroke:#b0b0b0;stroke-linecap:square;stroke-width:0.8;"/>
     </g>
     <g id="line2d_14">
      <g>
       <use style="stroke:#000000;stroke-width:0.8;" x="325.44" xlink:href="#md0285a5d53" y="307.584"/>
      </g>
     </g>
     <g id="text_7">
      <!-- 20 -->
      <g transform="translate(319.0775 322.182437)scale(0.1 -0.1)">
       <use xlink:href="#DejaVuSans-50"/>
       <use x="63.623047" xlink:href="#DejaVuSans-48"/>
      </g>
     </g>
    </g>
    <g id="xtick_8">
     <g id="line2d_15">
      <path clip-path="url(#pf84c2b9170)" d="M 370.08 307.584 
L 370.08 41.472 
" style="fill:none;stroke:#b0b0b0;stroke-linecap:square;stroke-width:0.8;"/>
     </g>
     <g id="line2d_16">
      <g>
       <use style="stroke:#000000;stroke-width:0.8;" x="370.08" xlink:href="#md0285a5d53" y="307.584"/>
      </g>
     </g>
     <g id="text_8">
      <!-- 30 -->
      <g transform="translate(363.7175 322.182437)scale(0.1 -0.1)">
       <use xlink:href="#DejaVuSans-51"/>
       <use x="63.623047" xlink:href="#DejaVuSans-48"/>
      </g>
     </g>
    </g>
    <g id="xtick_9">
     <g id="line2d_17">
      <path clip-path="url(#pf84c2b9170)" d="M 414.72 307.584 
L 414.72 41.472 
" style="fill:none;stroke:#b0b0b0;stroke-linecap:square;stroke-width:0.8;"/>
     </g>
     <g id="line2d_18">
      <g>
       <use style="stroke:#000000;stroke-width:0.8;" x="414.72" xlink:href="#md0285a5d53" y="307.584"/>
      </g>
     </g>
     <g id="text_9">
      <!-- 40 -->
      <g transform="translate(408.3575 322.182437)scale(0.1 -0.1)">
       <use xlink:href="#DejaVuSans-52"/>
       <use x="63.623047" xlink:href="#DejaVuSans-48"/>
      </g>
     </g>
    </g>
    <g id="text_10">
     <!-- Frequency (MHz) -->
     <defs>
      <path d="M 9.8125 72.90625 
L 51.703125 72.90625 
L 51.703125 64.59375 
L 19.671875 64.59375 
L 19.671875 43.109375 
L 48.578125 43.109375 
L 48.578125 34.8125 
L 19.671875 34.8125 
L 19.671875 0 
L 9.8125 0 
z
" id="DejaVuSans-70"/>
      <path d="M 41.109375 46.296875 
Q 39.59375 47.171875 37.8125 47.578125 
Q 36.03125 48 33.890625 48 
Q 26.265625 48 22.1875 43.046875 
Q 18.109375 38.09375 18.109375 28.8125 
L 18.109375 0 
L 9.078125 0 
L 9.078125 54.6875 
L 18.109375 54.6875 
L 18.109375 46.1875 
Q 20.953125 51.171875 25.484375 53.578125 
Q 30.03125 56 36.53125 56 
Q 37.453125 56 38.578125 55.875 
Q 39.703125 55.765625 41.0625 55.515625 
z
" id="DejaVuSans-114"/>
      <path d="M 56.203125 29.59375 
L 56.203125 25.203125 
L 14.890625 25.203125 
Q 15.484375 15.921875 20.484375 11.0625 
Q 25.484375 6.203125 34.421875 6.203125 
Q 39.59375 6.203125 44.453125 7.46875 
Q 49.3125 8.734375 54.109375 11.28125 
L 54.109375 2.78125 
Q 49.265625 0.734375 44.1875 -0.34375 
Q 39.109375 -1.421875 33.890625 -1.421875 
Q 20.796875 -1.421875 13.15625 6.1875 
Q 5.515625 13.8125 5.515625 26.8125 
Q 5.515625 40.234375 12.765625 48.109375 
Q 20.015625 56 32.328125 56 
Q 43.359375 56 49.78125 48.890625 
Q 56.203125 41.796875 56.203125 29.59375 
z
M 47.21875 32.234375 
Q 47.125 39.59375 43.09375 43.984375 
Q 39.0625 48.390625 32.421875 48.390625 
Q 24.90625 48.390625 20.390625 44.140625 
Q 15.875 39.890625 15.1875 32.171875 
z
" id="DejaVuSans-101"/>
      <path d="M 14.796875 27.296875 
Q 14.796875 17.390625 18.875 11.75 
Q 22.953125 6.109375 30.078125 6.109375 
Q 37.203125 6.109375 41.296875 11.75 
Q 45.40625 17.390625 45.40625 27.296875 
Q 45.40625 37.203125 41.296875 42.84375 
Q 37.203125 48.484375 30.078125 48.484375 
Q 22.953125 48.484375 18.875 42.84375 
Q 14.796875 37.203125 14.796875 27.296875 
z
M 45.40625 8.203125 
Q 42.578125 3.328125 38.25 0.953125 
Q 33.9375 -1.421875 27.875 -1.421875 
Q 17.96875 -1.421875 11.734375 6.484375 
Q 5.515625 14.40625 5.515625 27.296875 
Q 5.515625 40.1875 11.734375 48.09375 
Q 17.96875 56 27.875 56 
Q 33.9375 56 38.25 53.625 
Q 42.578125 51.265625 45.40625 46.390625 
L 45.40625 54.6875 
L 54.390625 54.6875 
L 54.390625 -20.796875 
L 45.40625 -20.796875 
z
" id="DejaVuSans-113"/>
      <path d="M 8.5 21.578125 
L 8.5 54.6875 
L 17.484375 54.6875 
L 17.484375 21.921875 
Q 17.484375 14.15625 20.5 10.265625 
Q 23.53125 6.390625 29.59375 6.390625 
Q 36.859375 6.390625 41.078125 11.03125 
Q 45.3125 15.671875 45.3125 23.6875 
L 45.3125 54.6875 
L 54.296875 54.6875 
L 54.296875 0 
L 45.3125 0 
L 45.3125 8.40625 
Q 42.046875 3.421875 37.71875 1 
Q 33.40625 -1.421875 27.6875 -1.421875 
Q 18.265625 -1.421875 13.375 4.4375 
Q 8.5 10.296875 8.5 21.578125 
z
M 31.109375 56 
z
" id="DejaVuSans-117"/>
      <path d="M 54.890625 33.015625 
L 54.890625 0 
L 45.90625 0 
L 45.90625 32.71875 
Q 45.90625 40.484375 42.875 44.328125 
Q 39.84375 48.1875 33.796875 48.1875 
Q 26.515625 48.1875 22.3125 43.546875 
Q 18.109375 38.921875 18.109375 30.90625 
L 18.109375 0 
L 9.078125 0 
L 9.078125 54.6875 
L 18.109375 54.6875 
L 18.109375 46.1875 
Q 21.34375 51.125 25.703125 53.5625 
Q 30.078125 56 35.796875 56 
Q 45.21875 56 50.046875 50.171875 
Q 54.890625 44.34375 54.890625 33.015625 
z
" id="DejaVuSans-110"/>
      <path d="M 48.78125 52.59375 
L 48.78125 44.1875 
Q 44.96875 46.296875 41.140625 47.34375 
Q 37.3125 48.390625 33.40625 48.390625 
Q 24.65625 48.390625 19.8125 42.84375 
Q 14.984375 37.3125 14.984375 27.296875 
Q 14.984375 17.28125 19.8125 11.734375 
Q 24.65625 6.203125 33.40625 6.203125 
Q 37.3125 6.203125 41.140625 7.25 
Q 44.96875 8.296875 48.78125 10.40625 
L 48.78125 2.09375 
Q 45.015625 0.34375 40.984375 -0.53125 
Q 36.96875 -1.421875 32.421875 -1.421875 
Q 20.0625 -1.421875 12.78125 6.34375 
Q 5.515625 14.109375 5.515625 27.296875 
Q 5.515625 40.671875 12.859375 48.328125 
Q 20.21875 56 33.015625 56 
Q 37.15625 56 41.109375 55.140625 
Q 45.0625 54.296875 48.78125 52.59375 
z
" id="DejaVuSans-99"/>
      <path d="M 32.171875 -5.078125 
Q 28.375 -14.84375 24.75 -17.8125 
Q 21.140625 -20.796875 15.09375 -20.796875 
L 7.90625 -20.796875 
L 7.90625 -13.28125 
L 13.1875 -13.28125 
Q 16.890625 -13.28125 18.9375 -11.515625 
Q 21 -9.765625 23.484375 -3.21875 
L 25.09375 0.875 
L 2.984375 54.6875 
L 12.5 54.6875 
L 29.59375 11.921875 
L 46.6875 54.6875 
L 56.203125 54.6875 
z
" id="DejaVuSans-121"/>
      <path id="DejaVuSans-32"/>
      <path d="M 31 75.875 
Q 24.46875 64.65625 21.28125 53.65625 
Q 18.109375 42.671875 18.109375 31.390625 
Q 18.109375 20.125 21.3125 9.0625 
Q 24.515625 -2 31 -13.1875 
L 23.1875 -13.1875 
Q 15.875 -1.703125 12.234375 9.375 
Q 8.59375 20.453125 8.59375 31.390625 
Q 8.59375 42.28125 12.203125 53.3125 
Q 15.828125 64.359375 23.1875 75.875 
z
" id="DejaVuSans-40"/>
      <path d="M 9.8125 72.90625 
L 24.515625 72.90625 
L 43.109375 23.296875 
L 61.8125 72.90625 
L 76.515625 72.90625 
L 76.515625 0 
L 66.890625 0 
L 66.890625 64.015625 
L 48.09375 14.015625 
L 38.1875 14.015625 
L 19.390625 64.015625 
L 19.390625 0 
L 9.8125 0 
z
" id="DejaVuSans-77"/>
      <path d="M 9.8125 72.90625 
L 19.671875 72.90625 
L 19.671875 43.015625 
L 55.515625 43.015625 
L 55.515625 72.90625 
L 65.375 72.90625 
L 65.375 0 
L 55.515625 0 
L 55.515625 34.71875 
L 19.671875 34.71875 
L 19.671875 0 
L 9.8125 0 
z
" id="DejaVuSans-72"/>
      <path d="M 5.515625 54.6875 
L 48.1875 54.6875 
L 48.1875 46.484375 
L 14.40625 7.171875 
L 48.1875 7.171875 
L 48.1875 0 
L 4.296875 0 
L 4.296875 8.203125 
L 38.09375 47.515625 
L 5.515625 47.515625 
z
" id="DejaVuSans-122"/>
      <path d="M 8.015625 75.875 
L 15.828125 75.875 
Q 23.140625 64.359375 26.78125 53.3125 
Q 30.421875 42.28125 30.421875 31.390625 
Q 30.421875 20.453125 26.78125 9.375 
Q 23.140625 -1.703125 15.828125 -13.1875 
L 8.015625 -13.1875 
Q 14.5 -2 17.703125 9.0625 
Q 20.90625 20.125 20.90625 31.390625 
Q 20.90625 42.671875 17.703125 53.65625 
Q 14.5 64.65625 8.015625 75.875 
z
" id="DejaVuSans-41"/>
     </defs>
     <g transform="translate(193.673281 335.860562)scale(0.1 -0.1)">
      <use xlink:href="#DejaVuSans-70"/>
      <use x="57.410156" xlink:href="#DejaVuSans-114"/>
      <use x="98.492188" xlink:href="#DejaVuSans-101"/>
      <use x="160.015625" xlink:href="#DejaVuSans-113"/>
      <use x="223.492188" xlink:href="#DejaVuSans-117"/>
      <use x="286.871094" xlink:href="#DejaVuSans-101"/>
      <use x="348.394531" xlink:href="#DejaVuSans-110"/>
      <use x="411.773438" xlink:href="#DejaVuSans-99"/>
      <use x="466.753906" xlink:href="#DejaVuSans-121"/>
      <use x="525.933594" xlink:href="#DejaVuSans-32"/>
      <use x="557.720703" xlink:href="#DejaVuSans-40"/>
      <use x="596.734375" xlink:href="#DejaVuSans-77"/>
      <use x="683.013672" xlink:href="#DejaVuSans-72"/>
      <use x="758.208984" xlink:href="#DejaVuSans-122"/>
      <use x="810.699219" xlink:href="#DejaVuSans-41"/>
     </g>
    </g>
   </g>
   <g id="matplotlib.axis_2">
    <g id="ytick_1">
     <g id="line2d_19">
      <path clip-path="url(#pf84c2b9170)" d="M 57.6 294.265939 
L 414.72 294.265939 
" style="fill:none;stroke:#b0b0b0;stroke-linecap:square;stroke-width:0.8;"/>
     </g>
     <g id="line2d_20">
      <defs>
       <path d="M 0 0 
L -3.5 0 
" id="me65aeb4730" style="stroke:#000000;stroke-width:0.8;"/>
      </defs>
      <g>
       <use style="stroke:#000000;stroke-width:0.8;" x="57.6" xlink:href="#me65aeb4730" y="294.265939"/>
      </g>
     </g>
     <g id="text_11">
      <!-- −110 -->
      <g transform="translate(23.132812 298.065158)scale(0.1 -0.1)">
       <use xlink:href="#DejaVuSans-8722"/>
       <use x="83.789062" xlink:href="#DejaVuSans-49"/>
       <use x="147.412109" xlink:href="#DejaVuSans-49"/>
       <use x="211.035156" xlink:href="#DejaVuSans-48"/>
      </g>
     </g>
    </g>
    <g id="ytick_2">
     <g id="line2d_21">
      <path clip-path="url(#pf84c2b9170)" d="M 57.6 251.719775 
L 414.72 251.719775 
" style="fill:none;stroke:#b0b0b0;stroke-linecap:square;stroke-width:0.8;"/>
     </g>
     <g id="line2d_22">
      <g>
       <use style="stroke:#000000;stroke-width:0.8;" x="57.6" xlink:href="#me65aeb4730" y="251.719775"/>
      </g>
     </g>
     <g id="text_12">
      <!-- −100 -->
      <g transform="translate(23.132812 255.518994)scale(0.1 -0.1)">
       <use xlink:href="#DejaVuSans-8722"/>
       <use x="83.789062" xlink:href="#DejaVuSans-49"/>
       <use x="147.412109" xlink:href="#DejaVuSans-48"/>
       <use x="211.035156" xlink:href="#DejaVuSans-48"/>
      </g>
     </g>
    </g>
    <g id="ytick_3">
     <g id="line2d_23">
      <path clip-path="url(#pf84c2b9170)" d="M 57.6 209.173612 
L 414.72 209.173612 
" style="fill:none;stroke:#b0b0b0;stroke-linecap:square;stroke-width:0.8;"/>
     </g>
     <g id="line2d_24">
      <g>
       <use style="stroke:#000000;stroke-width:0.8;" x="57.6" xlink:href="#me65aeb4730" y="209.173612"/>
      </g>
     </g>
     <g id="text_13">
      <!-- −90 -->
      <defs>
       <path d="M 10.984375 1.515625 
L 10.984375 10.5 
Q 14.703125 8.734375 18.5 7.8125 
Q 22.3125 6.890625 25.984375 6.890625 
Q 35.75 6.890625 40.890625 13.453125 
Q 46.046875 20.015625 46.78125 33.40625 
Q 43.953125 29.203125 39.59375 26.953125 
Q 35.25 24.703125 29.984375 24.703125 
Q 19.046875 24.703125 12.671875 31.3125 
Q 6.296875 37.9375 6.296875 49.421875 
Q 6.296875 60.640625 12.9375 67.421875 
Q 19.578125 74.21875 30.609375 74.21875 
Q 43.265625 74.21875 49.921875 64.515625 
Q 56.59375 54.828125 56.59375 36.375 
Q 56.59375 19.140625 48.40625 8.859375 
Q 40.234375 -1.421875 26.421875 -1.421875 
Q 22.703125 -1.421875 18.890625 -0.6875 
Q 15.09375 0.046875 10.984375 1.515625 
z
M 30.609375 32.421875 
Q 37.25 32.421875 41.125 36.953125 
Q 45.015625 41.5 45.015625 49.421875 
Q 45.015625 57.28125 41.125 61.84375 
Q 37.25 66.40625 30.609375 66.40625 
Q 23.96875 66.40625 20.09375 61.84375 
Q 16.21875 57.28125 16.21875 49.421875 
Q 16.21875 41.5 20.09375 36.953125 
Q 23.96875 32.421875 30.609375 32.421875 
z
" id="DejaVuSans-57"/>
      </defs>
      <g transform="translate(29.495313 212.97283)scale(0.1 -0.1)">
       <use xlink:href="#DejaVuSans-8722"/>
       <use x="83.789062" xlink:href="#DejaVuSans-57"/>
       <use x="147.412109" xlink:href="#DejaVuSans-48"/>
      </g>
     </g>
    </g>
    <g id="ytick_4">
     <g id="line2d_25">
      <path clip-path="url(#pf84c2b9170)" d="M 57.6 166.627448 
L 414.72 166.627448 
" style="fill:none;stroke:#b0b0b0;stroke-linecap:square;stroke-width:0.8;"/>
     </g>
     <g id="line2d_26">
      <g>
       <use style="stroke:#000000;stroke-width:0.8;" x="57.6" xlink:href="#me65aeb4730" y="166.627448"/>
      </g>
     </g>
     <g id="text_14">
      <!-- −80 -->
      <defs>
       <path d="M 31.78125 34.625 
Q 24.75 34.625 20.71875 30.859375 
Q 16.703125 27.09375 16.703125 20.515625 
Q 16.703125 13.921875 20.71875 10.15625 
Q 24.75 6.390625 31.78125 6.390625 
Q 38.8125 6.390625 42.859375 10.171875 
Q 46.921875 13.96875 46.921875 20.515625 
Q 46.921875 27.09375 42.890625 30.859375 
Q 38.875 34.625 31.78125 34.625 
z
M 21.921875 38.8125 
Q 15.578125 40.375 12.03125 44.71875 
Q 8.5 49.078125 8.5 55.328125 
Q 8.5 64.0625 14.71875 69.140625 
Q 20.953125 74.21875 31.78125 74.21875 
Q 42.671875 74.21875 48.875 69.140625 
Q 55.078125 64.0625 55.078125 55.328125 
Q 55.078125 49.078125 51.53125 44.71875 
Q 48 40.375 41.703125 38.8125 
Q 48.828125 37.15625 52.796875 32.3125 
Q 56.78125 27.484375 56.78125 20.515625 
Q 56.78125 9.90625 50.3125 4.234375 
Q 43.84375 -1.421875 31.78125 -1.421875 
Q 19.734375 -1.421875 13.25 4.234375 
Q 6.78125 9.90625 6.78125 20.515625 
Q 6.78125 27.484375 10.78125 32.3125 
Q 14.796875 37.15625 21.921875 38.8125 
z
M 18.3125 54.390625 
Q 18.3125 48.734375 21.84375 45.5625 
Q 25.390625 42.390625 31.78125 42.390625 
Q 38.140625 42.390625 41.71875 45.5625 
Q 45.3125 48.734375 45.3125 54.390625 
Q 45.3125 60.0625 41.71875 63.234375 
Q 38.140625 66.40625 31.78125 66.40625 
Q 25.390625 66.40625 21.84375 63.234375 
Q 18.3125 60.0625 18.3125 54.390625 
z
" id="DejaVuSans-56"/>
      </defs>
      <g transform="translate(29.495313 170.426666)scale(0.1 -0.1)">
       <use xlink:href="#DejaVuSans-8722"/>
       <use x="83.789062" xlink:href="#DejaVuSans-56"/>
       <use x="147.412109" xlink:href="#DejaVuSans-48"/>
      </g>
     </g>
    </g>
    <g id="ytick_5">
     <g id="line2d_27">
      <path clip-path="url(#pf84c2b9170)" d="M 57.6 124.081284 
L 414.72 124.081284 
" style="fill:none;stroke:#b0b0b0;stroke-linecap:square;stroke-width:0.8;"/>
     </g>
     <g id="line2d_28">
      <g>
       <use style="stroke:#000000;stroke-width:0.8;" x="57.6" xlink:href="#me65aeb4730" y="124.081284"/>
      </g>
     </g>
     <g id="text_15">
      <!-- −70 -->
      <defs>
       <path d="M 8.203125 72.90625 
L 55.078125 72.90625 
L 55.078125 68.703125 
L 28.609375 0 
L 18.3125 0 
L 43.21875 64.59375 
L 8.203125 64.59375 
z
" id="DejaVuSans-55"/>
      </defs>
      <g transform="translate(29.495313 127.880503)scale(0.1 -0.1)">
       <use xlink:href="#DejaVuSans-8722"/>
       <use x="83.789062" xlink:href="#DejaVuSans-55"/>
       <use x="147.412109" xlink:href="#DejaVuSans-48"/>
      </g>
     </g>
    </g>
    <g id="ytick_6">
     <g id="line2d_29">
      <path clip-path="url(#pf84c2b9170)" d="M 57.6 81.53512 
L 414.72 81.53512 
" style="fill:none;stroke:#b0b0b0;stroke-linecap:square;stroke-width:0.8;"/>
     </g>
     <g id="line2d_30">
      <g>
       <use style="stroke:#000000;stroke-width:0.8;" x="57.6" xlink:href="#me65aeb4730" y="81.53512"/>
      </g>
     </g>
     <g id="text_16">
      <!-- −60 -->
      <defs>
       <path d="M 33.015625 40.375 
Q 26.375 40.375 22.484375 35.828125 
Q 18.609375 31.296875 18.609375 23.390625 
Q 18.609375 15.53125 22.484375 10.953125 
Q 26.375 6.390625 33.015625 6.390625 
Q 39.65625 6.390625 43.53125 10.953125 
Q 47.40625 15.53125 47.40625 23.390625 
Q 47.40625 31.296875 43.53125 35.828125 
Q 39.65625 40.375 33.015625 40.375 
z
M 52.59375 71.296875 
L 52.59375 62.3125 
Q 48.875 64.0625 45.09375 64.984375 
Q 41.3125 65.921875 37.59375 65.921875 
Q 27.828125 65.921875 22.671875 59.328125 
Q 17.53125 52.734375 16.796875 39.40625 
Q 19.671875 43.65625 24.015625 45.921875 
Q 28.375 48.1875 33.59375 48.1875 
Q 44.578125 48.1875 50.953125 41.515625 
Q 57.328125 34.859375 57.328125 23.390625 
Q 57.328125 12.15625 50.6875 5.359375 
Q 44.046875 -1.421875 33.015625 -1.421875 
Q 20.359375 -1.421875 13.671875 8.265625 
Q 6.984375 17.96875 6.984375 36.375 
Q 6.984375 53.65625 15.1875 63.9375 
Q 23.390625 74.21875 37.203125 74.21875 
Q 40.921875 74.21875 44.703125 73.484375 
Q 48.484375 72.75 52.59375 71.296875 
z
" id="DejaVuSans-54"/>
      </defs>
      <g transform="translate(29.495313 85.334339)scale(0.1 -0.1)">
       <use xlink:href="#DejaVuSans-8722"/>
       <use x="83.789062" xlink:href="#DejaVuSans-54"/>
       <use x="147.412109" xlink:href="#DejaVuSans-48"/>
      </g>
     </g>
    </g>
   </g>
   <g id="line2d_31">
    <path clip-path="url(#pf84c2b9170)" d="M 57.425625 286.441902 
L 59.169375 285.178611 
L 60.04125 282.576452 
L 60.913125 284.121692 
L 62.656875 284.815689 
L 63.52875 284.929646 
L 64.400625 284.270381 
L 65.2725 282.597583 
L 67.01625 284.672843 
L 67.888125 284.402106 
L 68.76 284.420834 
L 69.631875 286.015462 
L 70.50375 285.585388 
L 71.375625 287.532991 
L 72.2475 287.030084 
L 73.119375 284.774131 
L 73.99125 283.041987 
L 74.863125 283.747234 
L 75.735 282.459042 
L 76.606875 282.340564 
L 77.47875 284.841298 
L 78.350625 283.597229 
L 79.2225 283.949751 
L 80.094375 283.235655 
L 80.96625 284.618398 
L 81.838125 284.335632 
L 82.71 281.978305 
L 83.581875 281.801586 
L 84.45375 282.689802 
L 85.325625 284.464239 
L 86.1975 284.088894 
L 87.069375 284.238747 
L 87.94125 283.462217 
L 88.813125 283.40823 
L 89.685 282.969566 
L 90.556875 284.949185 
L 91.42875 285.509825 
L 92.300625 282.881779 
L 93.1725 281.717059 
L 94.044375 283.54503 
L 94.91625 285.896857 
L 96.66 280.873131 
L 97.531875 280.634557 
L 98.40375 282.731866 
L 99.275625 283.393845 
L 100.1475 282.563426 
L 101.019375 282.736633 
L 101.89125 284.373185 
L 102.763125 284.699193 
L 103.635 282.951951 
L 104.506875 283.309669 
L 105.37875 281.15212 
L 106.250625 283.115389 
L 107.1225 282.644711 
L 107.994375 281.937704 
L 108.86625 280.285244 
L 109.738125 279.096193 
L 110.61 278.97969 
L 111.481875 281.656456 
L 112.35375 282.37423 
L 113.225625 279.83085 
L 114.0975 281.16738 
L 114.969375 283.548774 
L 115.84125 283.601522 
L 116.713125 282.122816 
L 119.32875 276.729971 
L 120.200625 273.94448 
L 122.81625 280.192478 
L 123.688125 279.59477 
L 124.56 276.180631 
L 125.431875 275.896161 
L 126.30375 275.413527 
L 127.175625 275.481144 
L 128.0475 275.737869 
L 128.919375 276.966038 
L 129.79125 275.056255 
L 130.663125 273.784277 
L 131.535 271.548382 
L 132.406875 271.707509 
L 133.27875 270.688448 
L 134.150625 272.361809 
L 135.0225 270.987823 
L 135.894375 273.52775 
L 136.76625 272.320905 
L 137.638125 268.671568 
L 138.51 268.411509 
L 139.381875 270.236077 
L 140.25375 268.886636 
L 141.125625 268.623903 
L 141.9975 267.008549 
L 142.869375 265.971699 
L 143.74125 264.14184 
L 144.613125 265.548535 
L 145.485 264.973272 
L 146.356875 263.913595 
L 147.22875 264.705708 
L 148.100625 264.174427 
L 148.9725 259.635173 
L 149.844375 259.171545 
L 150.71625 258.126268 
L 151.588125 260.952249 
L 152.46 259.713223 
L 153.331875 256.133672 
L 154.20375 258.404967 
L 155.075625 258.65701 
L 155.9475 255.778961 
L 156.819375 255.806608 
L 157.69125 256.29436 
L 158.563125 255.087447 
L 159.435 251.359789 
L 160.306875 251.389249 
L 161.17875 250.806955 
L 162.050625 250.048445 
L 162.9225 247.406375 
L 163.794375 247.669283 
L 164.66625 247.31717 
L 165.538125 245.299103 
L 166.41 247.124769 
L 167.281875 248.364288 
L 168.15375 247.216267 
L 169.025625 244.140747 
L 169.8975 244.211554 
L 170.769375 243.241986 
L 171.64125 239.523274 
L 172.513125 239.745689 
L 173.385 238.138443 
L 174.256875 237.930076 
L 175.12875 238.909557 
L 176.000625 238.558779 
L 176.8725 238.789958 
L 177.744375 234.862981 
L 178.61625 234.484073 
L 179.488125 233.960161 
L 180.36 234.923904 
L 181.231875 232.550044 
L 182.10375 231.530504 
L 183.8475 232.262565 
L 184.719375 229.722157 
L 185.59125 225.518085 
L 186.463125 229.389184 
L 187.335 229.484708 
L 188.206875 227.436511 
L 189.07875 230.436524 
L 189.950625 228.704626 
L 190.8225 226.231104 
L 191.694375 226.629826 
L 192.56625 223.633338 
L 194.31 219.739192 
L 195.181875 220.090001 
L 196.05375 221.272965 
L 196.925625 220.363232 
L 197.7975 219.147889 
L 198.669375 221.391157 
L 199.54125 219.025709 
L 200.413125 218.75272 
L 201.285 214.007206 
L 202.156875 211.431954 
L 203.02875 207.99074 
L 203.900625 206.397697 
L 204.7725 203.530392 
L 205.644375 201.342785 
L 206.51625 202.360787 
L 207.388125 197.55801 
L 209.131875 194.251471 
L 210.00375 193.836632 
L 210.875625 193.277227 
L 211.7475 191.039234 
L 212.619375 189.378192 
L 213.49125 186.002682 
L 214.363125 176.25455 
L 215.235 105.954376 
L 216.106875 66.050593 
L 216.97875 56.224165 
L 217.850625 55.443211 
L 218.7225 56.110979 
L 219.594375 56.494822 
L 220.46625 56.637736 
L 221.338125 56.273246 
L 222.21 57.632767 
L 223.081875 57.298109 
L 223.95375 55.130602 
L 224.825625 53.568 
L 225.6975 54.771334 
L 226.569375 56.734187 
L 227.44125 56.467947 
L 228.313125 55.257164 
L 229.185 54.529902 
L 230.056875 56.521737 
L 230.92875 54.474488 
L 231.800625 54.319492 
L 232.6725 54.400166 
L 233.544375 56.304603 
L 234.41625 56.921898 
L 235.288125 55.559852 
L 236.16 56.309991 
L 237.031875 57.637845 
L 237.90375 56.328816 
L 238.775625 57.138869 
L 239.6475 55.557574 
L 240.519375 55.422254 
L 241.39125 57.359379 
L 242.263125 57.262971 
L 243.135 57.632637 
L 244.006875 57.484832 
L 244.87875 56.062598 
L 245.750625 57.876833 
L 246.6225 56.902779 
L 247.494375 56.547557 
L 248.36625 55.746625 
L 249.238125 58.239383 
L 250.11 57.782495 
L 250.981875 57.77363 
L 251.85375 58.116716 
L 252.725625 56.732442 
L 253.5975 58.444882 
L 254.469375 57.999295 
L 255.34125 60.228745 
L 256.213125 68.444277 
L 257.085 107.183622 
L 257.956875 174.30029 
L 258.82875 183.58604 
L 259.700625 188.103133 
L 260.5725 191.317639 
L 261.444375 195.676022 
L 262.31625 195.087406 
L 263.188125 196.327704 
L 264.06 197.891401 
L 264.931875 198.426856 
L 266.675625 203.804018 
L 267.5475 205.602012 
L 268.419375 205.687459 
L 269.29125 208.510659 
L 270.163125 210.109612 
L 271.035 211.11079 
L 271.906875 212.668427 
L 272.77875 212.759718 
L 273.650625 213.173235 
L 274.5225 214.776001 
L 275.394375 217.33181 
L 276.26625 218.356725 
L 277.138125 218.428284 
L 278.01 218.877436 
L 278.881875 218.733071 
L 279.75375 220.700287 
L 280.625625 225.066187 
L 281.4975 222.351416 
L 282.369375 222.913958 
L 283.24125 225.53383 
L 284.113125 225.309109 
L 284.985 223.996525 
L 285.856875 226.771852 
L 286.72875 229.940772 
L 287.600625 226.606755 
L 288.4725 228.012289 
L 290.21625 232.268188 
L 291.088125 231.66073 
L 291.96 230.418052 
L 292.831875 232.706856 
L 293.70375 236.463435 
L 294.575625 237.656546 
L 295.4475 239.143048 
L 296.319375 239.673547 
L 297.19125 239.967359 
L 298.063125 241.230798 
L 298.935 240.361624 
L 299.806875 243.019087 
L 300.67875 242.332298 
L 301.550625 246.627189 
L 303.294375 247.967231 
L 304.16625 248.861786 
L 305.038125 250.587777 
L 305.91 251.353205 
L 306.781875 252.340105 
L 307.65375 252.694267 
L 308.525625 252.275223 
L 309.3975 253.513923 
L 310.269375 257.525251 
L 311.14125 254.754375 
L 312.013125 253.408869 
L 312.885 257.658268 
L 313.756875 257.500372 
L 314.62875 258.391218 
L 315.500625 260.65655 
L 316.3725 259.443707 
L 317.244375 259.856772 
L 318.11625 261.233236 
L 318.988125 261.59343 
L 319.86 262.866304 
L 320.731875 263.900317 
L 321.60375 262.626021 
L 322.475625 263.339759 
L 323.3475 265.236933 
L 324.219375 266.532518 
L 325.09125 266.84845 
L 325.963125 268.507408 
L 326.835 270.797834 
L 327.706875 270.503249 
L 328.57875 269.092795 
L 329.450625 268.722046 
L 330.3225 268.120837 
L 331.194375 268.926769 
L 332.06625 273.109653 
L 332.938125 274.155119 
L 333.81 271.43873 
L 334.681875 271.434883 
L 335.55375 270.375394 
L 336.425625 271.310873 
L 337.2975 271.789305 
L 338.169375 273.760151 
L 339.04125 277.716381 
L 339.913125 279.621717 
L 340.785 279.059019 
L 341.656875 275.21143 
L 342.52875 274.085684 
L 343.400625 271.152485 
L 344.2725 273.274646 
L 345.144375 279.580464 
L 346.01625 280.46748 
L 346.888125 277.641579 
L 347.76 275.992613 
L 348.631875 275.967487 
L 349.50375 274.393785 
L 350.375625 278.046709 
L 351.2475 280.66906 
L 352.119375 280.103725 
L 352.99125 280.027414 
L 353.863125 278.085071 
L 354.735 278.606992 
L 355.606875 278.310658 
L 356.47875 278.371536 
L 357.350625 279.795352 
L 358.2225 279.611586 
L 359.094375 280.371997 
L 359.96625 277.87818 
L 360.838125 279.712923 
L 362.581875 279.819354 
L 364.325625 283.084308 
L 365.1975 281.759582 
L 366.069375 283.024639 
L 367.813125 280.506523 
L 368.685 281.170162 
L 369.556875 283.414402 
L 370.42875 283.210521 
L 371.300625 284.871381 
L 372.1725 283.649997 
L 373.044375 280.609266 
L 373.91625 280.924875 
L 374.788125 282.504928 
L 375.66 282.412848 
L 376.531875 283.278155 
L 377.40375 285.132507 
L 378.275625 285.172852 
L 379.1475 283.430215 
L 380.019375 285.520551 
L 380.89125 284.211575 
L 381.763125 281.510791 
L 382.635 284.665035 
L 383.506875 285.061053 
L 384.37875 280.993189 
L 386.1225 282.016329 
L 386.994375 283.259612 
L 387.86625 283.114069 
L 388.738125 283.848897 
L 389.61 285.700757 
L 390.481875 285.503653 
L 391.35375 283.543436 
L 392.225625 280.887311 
L 393.969375 286.841936 
L 394.84125 284.013095 
L 395.713125 282.462396 
L 396.585 280.62434 
L 397.456875 282.444408 
L 398.32875 281.979899 
L 399.200625 282.115591 
L 400.0725 283.857022 
L 401.81625 282.487359 
L 402.688125 283.237397 
L 403.56 283.214533 
L 404.431875 282.930797 
L 405.30375 285.537399 
L 406.175625 283.713817 
L 407.0475 282.293338 
L 407.919375 284.232511 
L 408.79125 284.983358 
L 409.663125 283.748533 
L 410.535 285.039064 
L 411.406875 284.224543 
L 412.27875 282.87337 
L 413.150625 285.989583 
L 414.894375 282.923958 
L 414.894375 282.923958 
" style="fill:none;stroke:#1f77b4;stroke-linecap:square;stroke-width:1.5;"/>
   </g>
   <g id="line2d_32">
    <path clip-path="url(#pf84c2b9170)" d="M 57.425625 286.59135 
L 58.2975 283.53934 
L 59.169375 282.868986 
L 60.913125 285.484449 
L 61.785 287.523406 
L 62.656875 286.378655 
L 63.52875 283.986706 
L 64.400625 283.300475 
L 65.2725 283.9625 
L 66.144375 280.655245 
L 67.01625 283.672648 
L 67.888125 285.97924 
L 68.76 286.268661 
L 69.631875 285.325383 
L 70.50375 284.671209 
L 71.375625 283.242727 
L 72.2475 283.52336 
L 73.119375 286.421252 
L 73.99125 285.043777 
L 74.863125 285.024295 
L 75.735 286.204983 
L 76.606875 285.132922 
L 77.47875 284.270929 
L 78.350625 282.626273 
L 79.2225 283.13466 
L 80.094375 283.197207 
L 80.96625 281.738124 
L 81.838125 282.871314 
L 82.71 284.284334 
L 83.581875 284.637758 
L 84.45375 285.391676 
L 85.325625 284.968948 
L 86.1975 284.02538 
L 87.069375 283.807868 
L 87.94125 281.715839 
L 88.813125 282.739623 
L 89.685 284.750319 
L 90.556875 283.345172 
L 91.42875 284.011107 
L 92.300625 283.971846 
L 93.1725 283.522339 
L 94.044375 281.681693 
L 94.91625 284.44047 
L 95.788125 282.539278 
L 96.66 279.752472 
L 97.531875 280.595674 
L 98.40375 284.450986 
L 99.275625 286.704811 
L 100.1475 283.159827 
L 101.019375 284.343712 
L 102.763125 285.288287 
L 103.635 282.277151 
L 104.506875 281.851535 
L 105.37875 282.283191 
L 106.250625 280.756214 
L 107.1225 280.672647 
L 107.994375 278.602544 
L 108.86625 278.170833 
L 109.738125 278.858565 
L 110.61 279.019084 
L 111.481875 280.879645 
L 112.35375 280.010655 
L 113.225625 279.695553 
L 114.0975 280.18059 
L 114.969375 278.030711 
L 116.713125 277.485833 
L 117.585 276.06467 
L 118.456875 277.117849 
L 119.32875 276.278585 
L 120.200625 276.124767 
L 121.0725 276.301662 
L 121.944375 273.891743 
L 123.688125 273.221212 
L 124.56 273.811849 
L 125.431875 273.113282 
L 126.30375 273.506631 
L 127.175625 271.924007 
L 128.0475 271.620788 
L 128.919375 274.215544 
L 129.79125 274.497272 
L 130.663125 275.558984 
L 131.535 271.828414 
L 132.406875 271.462522 
L 133.27875 273.794617 
L 134.150625 271.726088 
L 135.0225 270.494772 
L 135.894375 270.241295 
L 136.76625 269.003403 
L 137.638125 268.925189 
L 138.51 268.244341 
L 139.381875 269.316114 
L 140.25375 270.197572 
L 141.125625 268.999277 
L 141.9975 268.728973 
L 142.869375 266.961625 
L 143.74125 266.030984 
L 144.613125 266.077377 
L 145.485 265.962867 
L 146.356875 264.829444 
L 147.22875 265.480307 
L 148.100625 264.983791 
L 148.9725 260.517226 
L 150.71625 265.065889 
L 151.588125 265.334764 
L 153.331875 261.624191 
L 154.20375 264.140971 
L 155.075625 265.822942 
L 155.9475 261.874 
L 156.819375 258.800934 
L 157.69125 261.469923 
L 158.563125 261.259868 
L 159.435 260.120821 
L 160.306875 261.52844 
L 161.17875 261.939872 
L 162.050625 261.210174 
L 162.9225 261.941646 
L 163.794375 260.053099 
L 165.538125 258.935593 
L 166.41 259.987502 
L 167.281875 261.332115 
L 168.15375 260.083264 
L 169.025625 257.307273 
L 169.8975 260.069269 
L 170.769375 257.271535 
L 171.64125 256.278464 
L 173.385 251.474085 
L 174.256875 254.272075 
L 175.12875 252.299313 
L 176.000625 253.131429 
L 176.8725 252.508325 
L 177.744375 250.51057 
L 178.61625 252.432503 
L 179.488125 252.630791 
L 180.36 252.599847 
L 182.10375 247.429214 
L 182.975625 247.595365 
L 183.8475 248.803079 
L 184.719375 248.245741 
L 185.59125 245.066741 
L 186.463125 246.237266 
L 187.335 245.069752 
L 188.206875 240.070195 
L 189.07875 243.635404 
L 189.950625 243.222558 
L 190.8225 240.227213 
L 191.694375 239.224074 
L 192.56625 236.127267 
L 193.438125 232.260269 
L 194.31 233.438853 
L 195.181875 233.167943 
L 196.05375 229.83964 
L 196.925625 230.837259 
L 197.7975 227.469678 
L 198.669375 224.624391 
L 199.54125 220.849153 
L 200.413125 220.190631 
L 201.285 220.071658 
L 202.156875 215.206225 
L 203.02875 212.797011 
L 203.900625 210.871818 
L 204.7725 207.609526 
L 205.644375 206.022765 
L 206.51625 204.695119 
L 207.388125 200.842977 
L 208.26 200.263458 
L 209.131875 199.087491 
L 210.00375 199.190112 
L 210.875625 198.394998 
L 211.7475 194.320718 
L 213.49125 189.068166 
L 214.363125 178.935595 
L 215.235 106.234291 
L 216.106875 66.214941 
L 216.97875 56.249471 
L 217.850625 55.424004 
L 218.7225 56.136663 
L 219.594375 56.57089 
L 220.46625 56.808401 
L 221.338125 56.303329 
L 222.21 57.656304 
L 223.081875 57.374861 
L 223.95375 55.24275 
L 224.825625 53.723215 
L 225.6975 54.84987 
L 226.569375 56.789696 
L 227.44125 56.560294 
L 228.313125 55.32966 
L 229.185 54.644003 
L 230.056875 56.626018 
L 230.92875 54.552668 
L 231.800625 54.392313 
L 232.6725 54.497882 
L 233.544375 56.329982 
L 234.41625 56.978259 
L 235.288125 55.640273 
L 236.16 56.382435 
L 237.031875 57.653252 
L 237.90375 56.399824 
L 238.775625 57.193427 
L 239.6475 55.556466 
L 240.519375 55.380528 
L 241.39125 57.270537 
L 242.263125 57.282591 
L 243.135 57.695672 
L 244.006875 57.623381 
L 244.87875 56.237888 
L 245.750625 58.032427 
L 246.6225 56.966502 
L 247.494375 56.621416 
L 248.36625 55.812054 
L 249.238125 58.277807 
L 250.11 57.844307 
L 250.981875 57.909903 
L 251.85375 58.262776 
L 252.725625 56.835726 
L 253.5975 58.510363 
L 254.469375 58.123006 
L 255.34125 60.404152 
L 256.213125 68.571553 
L 257.085 107.46871 
L 257.956875 176.653069 
L 258.82875 188.720776 
L 259.700625 195.958473 
L 260.5725 201.439919 
L 261.444375 205.481608 
L 262.31625 206.177569 
L 263.188125 208.112932 
L 264.06 211.465165 
L 264.931875 211.522071 
L 265.80375 212.533866 
L 266.675625 215.484603 
L 267.5475 219.647773 
L 268.419375 221.105766 
L 269.29125 226.411574 
L 270.163125 228.965547 
L 271.035 232.188384 
L 271.906875 236.812063 
L 272.77875 239.328699 
L 273.650625 239.270484 
L 274.5225 243.368268 
L 276.26625 246.209222 
L 277.138125 246.725334 
L 278.01 244.985864 
L 278.881875 245.360097 
L 279.75375 247.245452 
L 280.625625 250.045563 
L 281.4975 249.963356 
L 282.369375 250.745367 
L 283.24125 251.213925 
L 284.113125 250.121034 
L 284.985 249.810022 
L 285.856875 250.10708 
L 286.72875 254.114531 
L 287.600625 253.293881 
L 288.4725 253.726743 
L 289.344375 256.708596 
L 290.21625 256.751697 
L 291.96 256.636369 
L 292.831875 257.369036 
L 293.70375 259.559671 
L 294.575625 257.277166 
L 295.4475 258.897906 
L 296.319375 261.650412 
L 298.063125 260.022391 
L 298.935 258.299238 
L 299.806875 259.563745 
L 300.67875 259.897985 
L 301.550625 262.563861 
L 302.4225 262.545636 
L 303.294375 265.058257 
L 304.16625 264.912526 
L 305.038125 262.206126 
L 305.91 264.676759 
L 306.781875 267.621139 
L 307.65375 265.894102 
L 308.525625 263.53832 
L 309.3975 264.668396 
L 310.269375 266.538712 
L 311.14125 263.410459 
L 312.013125 263.036457 
L 312.885 267.695878 
L 313.756875 268.121462 
L 314.62875 265.875384 
L 315.500625 266.462417 
L 316.3725 264.82286 
L 317.244375 265.403501 
L 318.11625 268.943317 
L 318.988125 270.000748 
L 319.86 267.653761 
L 320.731875 265.946625 
L 321.60375 264.935101 
L 322.475625 264.926788 
L 323.3475 264.782781 
L 324.219375 266.303129 
L 325.09125 266.369244 
L 325.963125 267.699154 
L 326.835 269.849183 
L 327.706875 271.310032 
L 328.57875 269.406708 
L 329.450625 269.048929 
L 330.3225 269.956942 
L 331.194375 271.118573 
L 332.06625 273.259372 
L 332.938125 274.126891 
L 333.81 273.299099 
L 334.681875 274.071125 
L 335.55375 271.845583 
L 336.425625 270.499758 
L 337.2975 272.777793 
L 338.169375 273.953508 
L 339.04125 278.143856 
L 339.913125 275.512998 
L 340.785 273.45705 
L 341.656875 274.701128 
L 342.52875 275.013698 
L 343.400625 273.166004 
L 344.2725 272.848796 
L 345.144375 275.831346 
L 346.01625 274.615438 
L 346.888125 271.079864 
L 348.631875 274.131521 
L 349.50375 274.287526 
L 351.2475 276.971917 
L 352.119375 276.922087 
L 352.99125 275.846089 
L 353.863125 275.110394 
L 354.735 275.259634 
L 355.606875 276.685412 
L 356.47875 279.003071 
L 357.350625 277.781462 
L 358.2225 279.470398 
L 359.094375 279.528715 
L 359.96625 279.293869 
L 360.838125 279.424284 
L 361.71 280.818182 
L 362.581875 282.916435 
L 363.45375 281.256554 
L 364.325625 278.964282 
L 365.1975 279.341617 
L 366.069375 281.471975 
L 366.94125 280.231854 
L 367.813125 277.663513 
L 368.685 281.299603 
L 369.556875 281.069887 
L 371.300625 283.633731 
L 372.1725 283.137652 
L 373.044375 284.746635 
L 373.91625 284.154909 
L 374.788125 282.081254 
L 375.66 280.8883 
L 376.531875 282.244059 
L 377.40375 281.044376 
L 378.275625 279.007537 
L 379.1475 279.98819 
L 380.019375 282.181713 
L 380.89125 284.038443 
L 381.763125 282.848115 
L 382.635 280.66731 
L 383.506875 281.319261 
L 384.37875 282.411968 
L 385.250625 281.922408 
L 386.1225 284.828835 
L 386.994375 281.923688 
L 387.86625 280.546146 
L 388.738125 283.244607 
L 390.481875 284.550308 
L 391.35375 285.868009 
L 392.225625 282.156874 
L 393.0975 282.170998 
L 393.969375 284.038239 
L 394.84125 283.4172 
L 395.713125 283.772492 
L 396.585 283.071227 
L 397.456875 282.844017 
L 398.32875 283.149508 
L 399.200625 285.851646 
L 400.0725 285.477291 
L 400.944375 282.508871 
L 401.81625 280.580066 
L 402.688125 282.364692 
L 403.56 282.694633 
L 404.431875 281.250717 
L 405.30375 284.749682 
L 406.175625 285.595017 
L 407.0475 287.158782 
L 408.79125 281.93829 
L 409.663125 283.872657 
L 410.535 284.392259 
L 411.406875 284.726716 
L 412.27875 285.806217 
L 413.150625 283.509883 
L 414.0225 283.927314 
L 414.894375 285.999689 
L 414.894375 285.999689 
" style="fill:none;stroke:#ff7f0e;stroke-linecap:square;stroke-width:1.5;"/>
   </g>
   <g id="line2d_33">
    <path clip-path="url(#pf84c2b9170)" d="M 57.425625 283.961554 
L 58.2975 282.775403 
L 59.169375 284.761726 
L 60.04125 282.603775 
L 60.913125 282.827702 
L 61.785 285.740315 
L 62.656875 284.37666 
L 63.52875 284.935094 
L 64.400625 284.48164 
L 65.2725 282.425041 
L 66.144375 283.745663 
L 67.01625 284.230516 
L 67.888125 285.388324 
L 68.76 285.415855 
L 69.631875 285.066466 
L 70.50375 286.10297 
L 71.375625 286.571907 
L 72.2475 284.469103 
L 73.119375 283.918393 
L 73.99125 283.027724 
L 74.863125 283.340594 
L 75.735 283.142334 
L 76.606875 284.625149 
L 77.47875 286.446976 
L 78.350625 285.270286 
L 79.2225 283.086707 
L 80.094375 285.482758 
L 80.96625 285.651823 
L 81.838125 281.360158 
L 82.71 284.988001 
L 83.581875 284.541856 
L 85.325625 282.556152 
L 86.1975 284.004372 
L 87.069375 283.199631 
L 87.94125 284.322788 
L 88.813125 286.383639 
L 89.685 284.475077 
L 90.556875 284.807637 
L 91.42875 283.768634 
L 92.300625 285.450137 
L 93.1725 284.707031 
L 94.044375 284.465627 
L 94.91625 281.873725 
L 95.788125 280.64553 
L 96.66 280.17091 
L 97.531875 281.886938 
L 98.40375 285.234365 
L 99.275625 285.649851 
L 101.019375 283.309614 
L 101.89125 285.041639 
L 102.763125 283.449688 
L 103.635 284.278573 
L 104.506875 281.474278 
L 105.37875 280.304164 
L 106.250625 281.323132 
L 107.1225 281.558821 
L 107.994375 279.422205 
L 108.86625 280.989345 
L 109.738125 282.219188 
L 110.61 280.937781 
L 111.481875 279.394541 
L 112.35375 282.04571 
L 113.225625 281.147568 
L 114.0975 279.043535 
L 115.84125 280.502076 
L 116.713125 280.118661 
L 117.585 278.430614 
L 118.456875 278.489295 
L 119.32875 279.86259 
L 120.200625 280.691689 
L 121.0725 280.26941 
L 121.944375 280.604548 
L 122.81625 279.930727 
L 123.688125 280.101685 
L 124.56 279.802548 
L 125.431875 277.99238 
L 126.30375 279.246407 
L 128.0475 277.857652 
L 128.919375 279.66746 
L 129.79125 279.560656 
L 130.663125 279.614003 
L 131.535 278.162746 
L 132.406875 277.484938 
L 133.27875 277.880558 
L 134.150625 279.636483 
L 135.0225 277.568809 
L 135.894375 277.047552 
L 136.76625 278.195929 
L 137.638125 274.865511 
L 138.51 274.835623 
L 139.381875 275.637095 
L 140.25375 273.929602 
L 141.125625 274.910603 
L 141.9975 275.297169 
L 142.869375 274.245748 
L 143.74125 272.971662 
L 144.613125 272.215212 
L 145.485 274.027523 
L 146.356875 274.04009 
L 147.22875 273.368265 
L 148.100625 273.121229 
L 148.9725 270.543019 
L 149.844375 273.059164 
L 150.71625 274.047417 
L 151.588125 274.773612 
L 152.46 273.594109 
L 153.331875 270.690752 
L 154.20375 270.037606 
L 155.075625 272.176628 
L 155.9475 270.08074 
L 156.819375 271.84845 
L 157.69125 271.97154 
L 158.563125 268.950397 
L 159.435 267.686055 
L 160.306875 267.500034 
L 161.17875 268.526559 
L 162.050625 267.740721 
L 163.794375 269.091651 
L 164.66625 266.298064 
L 165.538125 264.355168 
L 166.41 268.440768 
L 167.281875 266.517261 
L 169.025625 261.627596 
L 169.8975 263.253153 
L 170.769375 264.091942 
L 171.64125 262.205968 
L 172.513125 261.018081 
L 173.385 258.888908 
L 174.256875 260.115719 
L 175.12875 259.338136 
L 176.000625 259.209405 
L 177.744375 254.974881 
L 178.61625 257.667601 
L 179.488125 258.054592 
L 180.36 258.690358 
L 181.231875 257.894332 
L 182.10375 257.598512 
L 182.975625 256.331562 
L 183.8475 253.780794 
L 184.719375 252.814692 
L 185.59125 249.679336 
L 186.463125 250.249869 
L 187.335 249.33042 
L 188.206875 245.427981 
L 189.07875 246.246989 
L 189.950625 248.186107 
L 190.8225 246.659388 
L 191.694375 246.48015 
L 193.438125 241.497886 
L 194.31 239.939659 
L 195.181875 237.258354 
L 196.05375 234.94274 
L 196.925625 235.748095 
L 197.7975 231.474268 
L 198.669375 228.630272 
L 199.54125 227.425188 
L 200.413125 225.719422 
L 201.285 222.886785 
L 202.156875 219.081102 
L 203.02875 215.851256 
L 203.900625 213.125002 
L 204.7725 208.620718 
L 205.644375 207.687813 
L 206.51625 207.451137 
L 207.388125 202.969651 
L 208.26 202.794572 
L 209.131875 201.139084 
L 210.00375 200.735693 
L 210.875625 200.066939 
L 211.7475 194.300891 
L 212.619375 192.37194 
L 213.49125 189.356495 
L 214.363125 178.734533 
L 215.235 106.17219 
L 216.106875 66.181362 
L 216.97875 56.249306 
L 217.850625 55.443515 
L 218.7225 56.142182 
L 219.594375 56.614201 
L 220.46625 56.806303 
L 221.338125 56.331483 
L 222.21 57.689246 
L 223.081875 57.397964 
L 223.95375 55.268252 
L 224.825625 53.724877 
L 225.6975 54.850202 
L 226.569375 56.808814 
L 227.44125 56.588781 
L 228.313125 55.37339 
L 229.185 54.660712 
L 230.056875 56.634068 
L 230.92875 54.579394 
L 231.800625 54.413746 
L 232.6725 54.525509 
L 233.544375 56.35927 
L 234.41625 57.000879 
L 235.288125 55.465589 
L 236.16 56.509704 
L 237.031875 58.010092 
L 237.90375 56.415426 
L 238.775625 57.221653 
L 239.6475 55.617114 
L 240.519375 55.434557 
L 241.39125 57.33226 
L 242.263125 57.287108 
L 243.135 57.689415 
L 244.006875 57.634151 
L 244.87875 56.242942 
L 245.750625 58.038581 
L 246.6225 56.96636 
L 247.494375 56.6523 
L 248.36625 55.878182 
L 249.238125 58.286748 
L 250.11 57.815828 
L 250.981875 57.8954 
L 251.85375 58.269718 
L 252.725625 56.855862 
L 253.5975 58.538064 
L 254.469375 58.139061 
L 255.34125 60.39342 
L 256.213125 68.562245 
L 257.085 107.478331 
L 257.956875 177.292064 
L 258.82875 189.894169 
L 259.700625 195.963229 
L 261.444375 205.681634 
L 262.31625 206.764017 
L 264.06 210.904731 
L 264.931875 210.454244 
L 265.80375 212.051257 
L 266.675625 215.598888 
L 267.5475 219.866364 
L 268.419375 221.606918 
L 269.29125 225.714681 
L 270.163125 227.975331 
L 271.035 232.073796 
L 271.906875 237.101329 
L 272.77875 239.826181 
L 273.650625 240.72042 
L 274.5225 244.012461 
L 275.394375 245.596718 
L 276.26625 246.282994 
L 277.138125 249.491615 
L 278.01 249.400652 
L 278.881875 248.721021 
L 279.75375 249.993473 
L 280.625625 250.965847 
L 281.4975 250.503345 
L 282.369375 253.339492 
L 283.24125 254.886453 
L 284.113125 254.821172 
L 284.985 251.864733 
L 285.856875 252.090956 
L 286.72875 256.419551 
L 287.600625 255.582626 
L 288.4725 257.037469 
L 289.344375 259.692465 
L 290.21625 258.407578 
L 291.96 263.673389 
L 292.831875 263.532297 
L 293.70375 266.396328 
L 295.4475 266.473794 
L 296.319375 265.609617 
L 297.19125 266.238688 
L 298.063125 268.541227 
L 298.935 269.269794 
L 299.806875 270.308596 
L 300.67875 271.890116 
L 301.550625 270.350155 
L 302.4225 270.724457 
L 303.294375 273.376511 
L 304.16625 273.421284 
L 305.91 272.358327 
L 306.781875 274.38013 
L 307.65375 272.587423 
L 308.525625 269.749338 
L 310.269375 278.819673 
L 311.14125 276.137808 
L 312.013125 270.94876 
L 312.885 271.927002 
L 313.756875 273.319163 
L 314.62875 275.769131 
L 316.3725 272.896552 
L 317.244375 274.826317 
L 318.11625 276.376268 
L 318.988125 274.365287 
L 320.731875 277.172097 
L 321.60375 275.854019 
L 322.475625 275.844899 
L 323.3475 277.030644 
L 324.219375 278.442585 
L 325.09125 277.802292 
L 325.963125 278.723812 
L 326.835 280.203814 
L 327.706875 277.625901 
L 329.450625 276.392238 
L 330.3225 278.212983 
L 331.194375 275.532144 
L 332.06625 275.988072 
L 332.938125 278.05876 
L 333.81 279.556571 
L 334.681875 277.957726 
L 336.425625 281.041333 
L 337.2975 280.629136 
L 338.169375 282.493232 
L 339.04125 282.187231 
L 339.913125 279.324369 
L 340.785 279.330557 
L 341.656875 279.894172 
L 342.52875 281.199277 
L 343.400625 280.399579 
L 344.2725 277.882325 
L 345.144375 280.327919 
L 346.01625 284.446983 
L 346.888125 281.544868 
L 347.76 282.461849 
L 348.631875 280.908172 
L 349.50375 279.666742 
L 350.375625 280.606003 
L 351.2475 278.95045 
L 352.119375 278.974068 
L 352.99125 280.545857 
L 353.863125 281.648114 
L 354.735 282.179476 
L 355.606875 282.06423 
L 356.47875 283.306371 
L 357.350625 283.73987 
L 358.2225 280.563901 
L 359.094375 279.265764 
L 359.96625 280.991187 
L 361.71 285.239875 
L 362.581875 286.094525 
L 363.45375 285.68553 
L 364.325625 283.938074 
L 365.1975 284.174942 
L 366.069375 281.438699 
L 366.94125 279.211375 
L 367.813125 282.676463 
L 369.556875 280.708913 
L 370.42875 284.310543 
L 371.300625 284.304781 
L 372.1725 280.89637 
L 373.044375 280.348921 
L 373.91625 280.267968 
L 374.788125 282.832014 
L 375.66 283.193375 
L 376.531875 280.689682 
L 377.40375 282.192926 
L 378.275625 284.252167 
L 379.1475 285.429148 
L 381.763125 282.769882 
L 382.635 282.846376 
L 383.506875 282.075816 
L 384.37875 281.918477 
L 385.250625 283.27164 
L 386.1225 282.3685 
L 387.86625 279.026145 
L 388.738125 280.943611 
L 389.61 283.843721 
L 390.481875 285.104425 
L 391.35375 283.575652 
L 392.225625 283.525482 
L 393.0975 283.00896 
L 393.969375 280.068298 
L 394.84125 282.872216 
L 395.713125 283.382761 
L 396.585 282.637195 
L 397.456875 283.529229 
L 398.32875 283.211995 
L 399.200625 283.577263 
L 400.0725 284.48407 
L 400.944375 285.09184 
L 401.81625 283.083601 
L 402.688125 282.14216 
L 403.56 282.888771 
L 404.431875 282.57969 
L 405.30375 282.048869 
L 406.175625 280.960734 
L 407.0475 282.480107 
L 407.919375 283.119461 
L 408.79125 284.304175 
L 409.663125 284.722266 
L 410.535 280.363671 
L 411.406875 282.319746 
L 412.27875 286.07746 
L 413.150625 281.889336 
L 414.0225 279.839587 
L 414.894375 279.150923 
L 414.894375 279.150923 
" style="fill:none;stroke:#2ca02c;stroke-linecap:square;stroke-width:1.5;"/>
   </g>
   <g id="patch_3">
    <path d="M 57.6 307.584 
L 57.6 41.472 
" style="fill:none;stroke:#000000;stroke-linecap:square;stroke-linejoin:miter;stroke-width:0.8;"/>
   </g>
   <g id="patch_4">
    <path d="M 414.72 307.584 
L 414.72 41.472 
" style="fill:none;stroke:#000000;stroke-linecap:square;stroke-linejoin:miter;stroke-width:0.8;"/>
   </g>
   <g id="patch_5">
    <path d="M 57.6 307.584 
L 414.72 307.584 
" style="fill:none;stroke:#000000;stroke-linecap:square;stroke-linejoin:miter;stroke-width:0.8;"/>
   </g>
   <g id="patch_6">
    <path d="M 57.6 41.472 
L 414.72 41.472 
" style="fill:none;stroke:#000000;stroke-linecap:square;stroke-linejoin:miter;stroke-width:0.8;"/>
   </g>
   <g id="text_17">
    <!-- Frequency Domain -->
    <defs>
     <path d="M 19.671875 64.796875 
L 19.671875 8.109375 
L 31.59375 8.109375 
Q 46.6875 8.109375 53.6875 14.9375 
Q 60.6875 21.78125 60.6875 36.53125 
Q 60.6875 51.171875 53.6875 57.984375 
Q 46.6875 64.796875 31.59375 64.796875 
z
M 9.8125 72.90625 
L 30.078125 72.90625 
Q 51.265625 72.90625 61.171875 64.09375 
Q 71.09375 55.28125 71.09375 36.53125 
Q 71.09375 17.671875 61.125 8.828125 
Q 51.171875 0 30.078125 0 
L 9.8125 0 
z
" id="DejaVuSans-68"/>
     <path d="M 30.609375 48.390625 
Q 23.390625 48.390625 19.1875 42.75 
Q 14.984375 37.109375 14.984375 27.296875 
Q 14.984375 17.484375 19.15625 11.84375 
Q 23.34375 6.203125 30.609375 6.203125 
Q 37.796875 6.203125 41.984375 11.859375 
Q 46.1875 17.53125 46.1875 27.296875 
Q 46.1875 37.015625 41.984375 42.703125 
Q 37.796875 48.390625 30.609375 48.390625 
z
M 30.609375 56 
Q 42.328125 56 49.015625 48.375 
Q 55.71875 40.765625 55.71875 27.296875 
Q 55.71875 13.875 49.015625 6.21875 
Q 42.328125 -1.421875 30.609375 -1.421875 
Q 18.84375 -1.421875 12.171875 6.21875 
Q 5.515625 13.875 5.515625 27.296875 
Q 5.515625 40.765625 12.171875 48.375 
Q 18.84375 56 30.609375 56 
z
" id="DejaVuSans-111"/>
     <path d="M 52 44.1875 
Q 55.375 50.25 60.0625 53.125 
Q 64.75 56 71.09375 56 
Q 79.640625 56 84.28125 50.015625 
Q 88.921875 44.046875 88.921875 33.015625 
L 88.921875 0 
L 79.890625 0 
L 79.890625 32.71875 
Q 79.890625 40.578125 77.09375 44.375 
Q 74.3125 48.1875 68.609375 48.1875 
Q 61.625 48.1875 57.5625 43.546875 
Q 53.515625 38.921875 53.515625 30.90625 
L 53.515625 0 
L 44.484375 0 
L 44.484375 32.71875 
Q 44.484375 40.625 41.703125 44.40625 
Q 38.921875 48.1875 33.109375 48.1875 
Q 26.21875 48.1875 22.15625 43.53125 
Q 18.109375 38.875 18.109375 30.90625 
L 18.109375 0 
L 9.078125 0 
L 9.078125 54.6875 
L 18.109375 54.6875 
L 18.109375 46.1875 
Q 21.1875 51.21875 25.484375 53.609375 
Q 29.78125 56 35.6875 56 
Q 41.65625 56 45.828125 52.96875 
Q 50 49.953125 52 44.1875 
z
" id="DejaVuSans-109"/>
     <path d="M 34.28125 27.484375 
Q 23.390625 27.484375 19.1875 25 
Q 14.984375 22.515625 14.984375 16.5 
Q 14.984375 11.71875 18.140625 8.90625 
Q 21.296875 6.109375 26.703125 6.109375 
Q 34.1875 6.109375 38.703125 11.40625 
Q 43.21875 16.703125 43.21875 25.484375 
L 43.21875 27.484375 
z
M 52.203125 31.203125 
L 52.203125 0 
L 43.21875 0 
L 43.21875 8.296875 
Q 40.140625 3.328125 35.546875 0.953125 
Q 30.953125 -1.421875 24.3125 -1.421875 
Q 15.921875 -1.421875 10.953125 3.296875 
Q 6 8.015625 6 15.921875 
Q 6 25.140625 12.171875 29.828125 
Q 18.359375 34.515625 30.609375 34.515625 
L 43.21875 34.515625 
L 43.21875 35.40625 
Q 43.21875 41.609375 39.140625 45 
Q 35.0625 48.390625 27.6875 48.390625 
Q 23 48.390625 18.546875 47.265625 
Q 14.109375 46.140625 10.015625 43.890625 
L 10.015625 52.203125 
Q 14.9375 54.109375 19.578125 55.046875 
Q 24.21875 56 28.609375 56 
Q 40.484375 56 46.34375 49.84375 
Q 52.203125 43.703125 52.203125 31.203125 
z
" id="DejaVuSans-97"/>
     <path d="M 9.421875 54.6875 
L 18.40625 54.6875 
L 18.40625 0 
L 9.421875 0 
z
M 9.421875 75.984375 
L 18.40625 75.984375 
L 18.40625 64.59375 
L 9.421875 64.59375 
z
" id="DejaVuSans-105"/>
    </defs>
    <g transform="translate(179.414062 35.472)scale(0.12 -0.12)">
     <use xlink:href="#DejaVuSans-70"/>
     <use x="57.410156" xlink:href="#DejaVuSans-114"/>
     <use x="98.492188" xlink:href="#DejaVuSans-101"/>
     <use x="160.015625" xlink:href="#DejaVuSans-113"/>
     <use x="223.492188" xlink:href="#DejaVuSans-117"/>
     <use x="286.871094" xlink:href="#DejaVuSans-101"/>
     <use x="348.394531" xlink:href="#DejaVuSans-110"/>
     <use x="411.773438" xlink:href="#DejaVuSans-99"/>
     <use x="466.753906" xlink:href="#DejaVuSans-121"/>
     <use x="525.933594" xlink:href="#DejaVuSans-32"/>
     <use x="557.720703" xlink:href="#DejaVuSans-68"/>
     <use x="634.722656" xlink:href="#DejaVuSans-111"/>
     <use x="695.904297" xlink:href="#DejaVuSans-109"/>
     <use x="793.316406" xlink:href="#DejaVuSans-97"/>
     <use x="854.595703" xlink:href="#DejaVuSans-105"/>
     <use x="882.378906" xlink:href="#DejaVuSans-110"/>
    </g>
   </g>
   <g id="legend_1">
    <g id="patch_7">
     <path d="M 310.05125 93.506375 
L 407.72 93.506375 
Q 409.72 93.506375 409.72 91.506375 
L 409.72 48.472 
Q 409.72 46.472 407.72 46.472 
L 310.05125 46.472 
Q 308.05125 46.472 308.05125 48.472 
L 308.05125 91.506375 
Q 308.05125 93.506375 310.05125 93.506375 
z
" style="fill:#ffffff;opacity:0.8;stroke:#cccccc;stroke-linejoin:miter;"/>
    </g>
    <g id="line2d_34">
     <path d="M 312.05125 54.570438 
L 332.05125 54.570438 
" style="fill:none;stroke:#1f77b4;stroke-linecap:square;stroke-width:1.5;"/>
    </g>
    <g id="line2d_35"/>
    <g id="text_18">
     <!-- Without DPD -->
     <defs>
      <path d="M 3.328125 72.90625 
L 13.28125 72.90625 
L 28.609375 11.28125 
L 43.890625 72.90625 
L 54.984375 72.90625 
L 70.3125 11.28125 
L 85.59375 72.90625 
L 95.609375 72.90625 
L 77.296875 0 
L 64.890625 0 
L 49.515625 63.28125 
L 33.984375 0 
L 21.578125 0 
z
" id="DejaVuSans-87"/>
      <path d="M 18.3125 70.21875 
L 18.3125 54.6875 
L 36.8125 54.6875 
L 36.8125 47.703125 
L 18.3125 47.703125 
L 18.3125 18.015625 
Q 18.3125 11.328125 20.140625 9.421875 
Q 21.96875 7.515625 27.59375 7.515625 
L 36.8125 7.515625 
L 36.8125 0 
L 27.59375 0 
Q 17.1875 0 13.234375 3.875 
Q 9.28125 7.765625 9.28125 18.015625 
L 9.28125 47.703125 
L 2.6875 47.703125 
L 2.6875 54.6875 
L 9.28125 54.6875 
L 9.28125 70.21875 
z
" id="DejaVuSans-116"/>
      <path d="M 54.890625 33.015625 
L 54.890625 0 
L 45.90625 0 
L 45.90625 32.71875 
Q 45.90625 40.484375 42.875 44.328125 
Q 39.84375 48.1875 33.796875 48.1875 
Q 26.515625 48.1875 22.3125 43.546875 
Q 18.109375 38.921875 18.109375 30.90625 
L 18.109375 0 
L 9.078125 0 
L 9.078125 75.984375 
L 18.109375 75.984375 
L 18.109375 46.1875 
Q 21.34375 51.125 25.703125 53.5625 
Q 30.078125 56 35.796875 56 
Q 45.21875 56 50.046875 50.171875 
Q 54.890625 44.34375 54.890625 33.015625 
z
" id="DejaVuSans-104"/>
      <path d="M 19.671875 64.796875 
L 19.671875 37.40625 
L 32.078125 37.40625 
Q 38.96875 37.40625 42.71875 40.96875 
Q 46.484375 44.53125 46.484375 51.125 
Q 46.484375 57.671875 42.71875 61.234375 
Q 38.96875 64.796875 32.078125 64.796875 
z
M 9.8125 72.90625 
L 32.078125 72.90625 
Q 44.34375 72.90625 50.609375 67.359375 
Q 56.890625 61.8125 56.890625 51.125 
Q 56.890625 40.328125 50.609375 34.8125 
Q 44.34375 29.296875 32.078125 29.296875 
L 19.671875 29.296875 
L 19.671875 0 
L 9.8125 0 
z
" id="DejaVuSans-80"/>
     </defs>
     <g transform="translate(340.05125 58.070438)scale(0.1 -0.1)">
      <use xlink:href="#DejaVuSans-87"/>
      <use x="98.845703" xlink:href="#DejaVuSans-105"/>
      <use x="126.628906" xlink:href="#DejaVuSans-116"/>
      <use x="165.837891" xlink:href="#DejaVuSans-104"/>
      <use x="229.216797" xlink:href="#DejaVuSans-111"/>
      <use x="290.398438" xlink:href="#DejaVuSans-117"/>
      <use x="353.777344" xlink:href="#DejaVuSans-116"/>
      <use x="392.986328" xlink:href="#DejaVuSans-32"/>
      <use x="424.773438" xlink:href="#DejaVuSans-68"/>
      <use x="501.775391" xlink:href="#DejaVuSans-80"/>
      <use x="562.078125" xlink:href="#DejaVuSans-68"/>
     </g>
    </g>
    <g id="line2d_36">
     <path d="M 312.05125 69.248563 
L 332.05125 69.248563 
" style="fill:none;stroke:#ff7f0e;stroke-linecap:square;stroke-width:1.5;"/>
    </g>
    <g id="line2d_37"/>
    <g id="text_19">
     <!-- With MP DPD -->
     <g transform="translate(340.05125 72.748563)scale(0.1 -0.1)">
      <use xlink:href="#DejaVuSans-87"/>
      <use x="98.845703" xlink:href="#DejaVuSans-105"/>
      <use x="126.628906" xlink:href="#DejaVuSans-116"/>
      <use x="165.837891" xlink:href="#DejaVuSans-104"/>
      <use x="229.216797" xlink:href="#DejaVuSans-32"/>
      <use x="261.003906" xlink:href="#DejaVuSans-77"/>
      <use x="347.283203" xlink:href="#DejaVuSans-80"/>
      <use x="407.585938" xlink:href="#DejaVuSans-32"/>
      <use x="439.373047" xlink:href="#DejaVuSans-68"/>
      <use x="516.375" xlink:href="#DejaVuSans-80"/>
      <use x="576.677734" xlink:href="#DejaVuSans-68"/>
     </g>
    </g>
    <g id="line2d_38">
     <path d="M 312.05125 83.926688 
L 332.05125 83.926688 
" style="fill:none;stroke:#2ca02c;stroke-linecap:square;stroke-width:1.5;"/>
    </g>
    <g id="line2d_39"/>
    <g id="text_20">
     <!-- With NN DPD -->
     <defs>
      <path d="M 9.8125 72.90625 
L 23.09375 72.90625 
L 55.421875 11.921875 
L 55.421875 72.90625 
L 64.984375 72.90625 
L 64.984375 0 
L 51.703125 0 
L 19.390625 60.984375 
L 19.390625 0 
L 9.8125 0 
z
" id="DejaVuSans-78"/>
     </defs>
     <g transform="translate(340.05125 87.426688)scale(0.1 -0.1)">
      <use xlink:href="#DejaVuSans-87"/>
      <use x="98.845703" xlink:href="#DejaVuSans-105"/>
      <use x="126.628906" xlink:href="#DejaVuSans-116"/>
      <use x="165.837891" xlink:href="#DejaVuSans-104"/>
      <use x="229.216797" xlink:href="#DejaVuSans-32"/>
      <use x="261.003906" xlink:href="#DejaVuSans-78"/>
      <use x="335.808594" xlink:href="#DejaVuSans-78"/>
      <use x="410.613281" xlink:href="#DejaVuSans-32"/>
      <use x="442.400391" xlink:href="#DejaVuSans-68"/>
      <use x="519.402344" xlink:href="#DejaVuSans-80"/>
      <use x="579.705078" xlink:href="#DejaVuSans-68"/>
     </g>
    </g>
   </g>
  </g>
 </g>
 <defs>
  <clipPath id="pf84c2b9170">
   <rect height="266.112" width="357.12" x="57.6" y="41.472"/>
  </clipPath>
 </defs>
</svg>
